<svg width="25" height="25" viewBox="0 0 25 25" fill="none" xmlns="http://www.w3.org/2000/svg">
<g clip-path="url(#clip0_157_149)">
<path d="M6.6784 0.831177C3.45619 0.831177 0.831543 3.45619 0.831543 6.6784V18.3215C0.831543 21.5438 3.45582 24.1688 6.6784 24.1688H18.3215C21.5438 24.1688 24.1688 21.5438 24.1688 18.3215V6.67803C24.1688 3.45582 21.5438 0.830811 18.3215 0.830811L6.6784 0.831177ZM6.6784 2.7848H18.3215C20.4955 2.7848 22.2155 4.50442 22.2155 6.6784V18.3215C22.2155 20.4955 20.4955 22.2148 18.3215 22.2148H6.6784C4.50442 22.2148 2.7848 20.4955 2.7848 18.3215V6.67803C2.7848 4.50406 4.50442 2.7848 6.6784 2.7848ZM12.7297 5.76268C12.4708 5.76637 12.224 5.87272 12.0435 6.05835C11.863 6.24398 11.7636 6.49369 11.7671 6.75259V11.4593H7.06115C6.93069 11.4557 6.80083 11.4783 6.67925 11.5258C6.55767 11.5732 6.44683 11.6445 6.35328 11.7356C6.25973 11.8266 6.18538 11.9354 6.13461 12.0556C6.08383 12.1759 6.05767 12.3051 6.05767 12.4356C6.05767 12.5661 6.08383 12.6953 6.13461 12.8155C6.18538 12.9357 6.25973 13.0446 6.35328 13.1356C6.44683 13.2266 6.55767 13.2979 6.67925 13.3454C6.80083 13.3928 6.93069 13.4154 7.06115 13.4118H11.7671V18.1178C11.7646 18.2477 11.788 18.3768 11.836 18.4975C11.8839 18.6182 11.9555 18.7281 12.0464 18.8209C12.1374 18.9136 12.2459 18.9873 12.3657 19.0376C12.4854 19.0879 12.614 19.1138 12.7439 19.1138C12.8738 19.1138 13.0024 19.0879 13.1222 19.0376C13.242 18.9873 13.3505 18.9136 13.4415 18.8209C13.5324 18.7281 13.604 18.6182 13.6519 18.4975C13.6999 18.3768 13.7233 18.2477 13.7208 18.1178V13.4118H18.4267C18.5572 13.4154 18.6871 13.3928 18.8086 13.3454C18.9302 13.2979 19.0411 13.2266 19.1346 13.1356C19.2282 13.0446 19.3025 12.9357 19.3533 12.8155C19.4041 12.6953 19.4302 12.5661 19.4302 12.4356C19.4302 12.3051 19.4041 12.1759 19.3533 12.0556C19.3025 11.9354 19.2282 11.8266 19.1346 11.7356C19.0411 11.6445 18.9302 11.5732 18.8086 11.5258C18.6871 11.4783 18.5572 11.4557 18.4267 11.4593H13.7208V6.75259C13.7225 6.622 13.6981 6.49238 13.6489 6.3714C13.5998 6.25042 13.5268 6.14052 13.4344 6.04823C13.342 5.95593 13.232 5.88311 13.111 5.83406C12.99 5.78501 12.8603 5.76074 12.7297 5.76268Z" fill="black"/>
</g>
<defs>
<clipPath id="clip0_157_149">
<rect width="25" height="25" fill="white"/>
</clipPath>
</defs>
</svg>
