<svg width="24" height="25" viewBox="0 0 24 25" fill="none" xmlns="http://www.w3.org/2000/svg">
<path d="M18.75 1.25L9.45825 10.541C8.44971 10.2353 7.3836 10.1699 6.34528 10.3502C5.30695 10.5305 4.32526 10.9514 3.47882 11.5792C2.63238 12.207 1.94469 13.0243 1.47084 13.9656C0.996977 14.9069 0.75011 15.9461 0.75 17C0.75 18.7902 1.46116 20.5071 2.72703 21.773C3.9929 23.0388 5.70979 23.75 7.5 23.75C8.55388 23.7498 9.59308 23.5029 10.5344 23.0289C11.4757 22.555 12.2929 21.8672 12.9207 21.0207C13.5484 20.1741 13.9692 19.1924 14.1494 18.154C14.3296 17.1157 14.2641 16.0495 13.9583 15.041L15.75 13.25V11.75H17.25L23.25 5.75V1.25H18.75ZM21.75 5.12825L16.629 10.25H14.25V12.6282L12.8978 13.9797L12.2618 14.6157L12.5228 15.476C12.6735 15.9725 12.75 16.4848 12.75 17C12.75 19.895 10.3942 22.25 7.5 22.25C4.60575 22.25 2.25 19.895 2.25 17C2.25 14.105 4.60575 11.75 7.5 11.75C8.0145 11.75 8.5275 11.8265 9.02325 11.9765L9.88275 12.2375L10.5187 11.6015L19.371 2.75H21.75V5.12825Z" fill="#B570F7"/>
<path d="M6 20C6.82843 20 7.5 19.3284 7.5 18.5C7.5 17.6716 6.82843 17 6 17C5.17157 17 4.5 17.6716 4.5 18.5C4.5 19.3284 5.17157 20 6 20Z" fill="#B570F7"/>
<path d="M15.4845 8.48523L19.9845 3.98523L20.5148 4.51548L16.0148 9.01548L15.4845 8.48523Z" fill="#B570F7"/>
</svg>
