<svg width="29" height="29" viewBox="0 0 29 29" fill="none" xmlns="http://www.w3.org/2000/svg">
<g clip-path="url(#clip0_37_460)">
<path d="M22.6562 0.90625L11.4287 12.1329C10.2101 11.7634 8.92185 11.6845 7.66721 11.9023C6.41257 12.1202 5.22636 12.6288 4.20357 13.3874C3.18079 14.146 2.34984 15.1335 1.77726 16.271C1.20468 17.4084 0.906383 18.6641 0.90625 19.9375C0.90625 22.1007 1.76557 24.1752 3.29516 25.7048C4.82475 27.2344 6.89933 28.0938 9.0625 28.0938C10.3359 28.0935 11.5916 27.7951 12.729 27.2224C13.8664 26.6497 14.8539 25.8187 15.6125 24.7958C16.371 23.7729 16.8795 22.5866 17.0972 21.3319C17.3149 20.0772 17.2358 18.789 16.8662 17.5704L19.0312 15.4062V13.5938H20.8438L28.0938 6.34375V0.90625H22.6562ZM26.2812 5.59247L20.0934 11.7812H17.2188V14.655L15.5848 16.288L14.8163 17.0565L15.1317 18.096C15.3138 18.6959 15.4062 19.3149 15.4062 19.9375C15.4062 23.4356 12.5597 26.2812 9.0625 26.2812C5.56528 26.2812 2.71875 23.4356 2.71875 19.9375C2.71875 16.4394 5.56528 13.5938 9.0625 13.5938C9.68419 13.5938 10.3041 13.6862 10.9031 13.8674L11.9417 14.1828L12.7102 13.4143L23.4066 2.71875H26.2812V5.59247Z" fill="#B570F7"/>
<path d="M7.25 23.5625C8.25102 23.5625 9.0625 22.751 9.0625 21.75C9.0625 20.749 8.25102 19.9375 7.25 19.9375C6.24898 19.9375 5.4375 20.749 5.4375 21.75C5.4375 22.751 6.24898 23.5625 7.25 23.5625Z" fill="#B570F7"/>
<path d="M18.7104 9.64887L24.1479 4.21136L24.7887 4.85208L19.3512 10.2896L18.7104 9.64887Z" fill="#B570F7"/>
</g>
<defs>
<clipPath id="clip0_37_460">
<rect width="29" height="29" fill="white"/>
</clipPath>
</defs>
</svg>
