<svg width="26" height="27" viewBox="0 0 26 27" fill="none" xmlns="http://www.w3.org/2000/svg">
<path d="M13 14.5834C12.7127 14.5834 12.4371 14.6975 12.234 14.9007C12.0308 15.1038 11.9167 15.3794 11.9167 15.6667V18.9167C11.9167 19.204 12.0308 19.4796 12.234 19.6827C12.4371 19.8859 12.7127 20 13 20C13.2873 20 13.5629 19.8859 13.766 19.6827C13.9692 19.4796 14.0833 19.204 14.0833 18.9167V15.6667C14.0833 15.3794 13.9692 15.1038 13.766 14.9007C13.5629 14.6975 13.2873 14.5834 13 14.5834ZM18.4167 10.25V8.08335C18.4167 6.64676 17.846 5.26901 16.8302 4.25319C15.8143 3.23737 14.4366 2.66669 13 2.66669C11.5634 2.66669 10.1857 3.23737 9.16984 4.25319C8.15402 5.26901 7.58334 6.64676 7.58334 8.08335V10.25C6.72138 10.25 5.89473 10.5924 5.28524 11.2019C4.67575 11.8114 4.33334 12.6381 4.33334 13.5V21.0834C4.33334 21.9453 4.67575 22.772 5.28524 23.3814C5.89473 23.9909 6.72138 24.3334 7.58334 24.3334H18.4167C19.2786 24.3334 20.1053 23.9909 20.7148 23.3814C21.3243 22.772 21.6667 21.9453 21.6667 21.0834V13.5C21.6667 12.6381 21.3243 11.8114 20.7148 11.2019C20.1053 10.5924 19.2786 10.25 18.4167 10.25ZM9.75 8.08335C9.75 7.2214 10.0924 6.39475 10.7019 5.78526C11.3114 5.17576 12.138 4.83335 13 4.83335C13.862 4.83335 14.6886 5.17576 15.2981 5.78526C15.9076 6.39475 16.25 7.2214 16.25 8.08335V10.25H9.75V8.08335ZM19.5 21.0834C19.5 21.3707 19.3859 21.6462 19.1827 21.8494C18.9795 22.0525 18.704 22.1667 18.4167 22.1667H7.58334C7.29602 22.1667 7.02047 22.0525 6.8173 21.8494C6.61414 21.6462 6.5 21.3707 6.5 21.0834V13.5C6.5 13.2127 6.61414 12.9372 6.8173 12.734C7.02047 12.5308 7.29602 12.4167 7.58334 12.4167H18.4167C18.704 12.4167 18.9795 12.5308 19.1827 12.734C19.3859 12.9372 19.5 13.2127 19.5 13.5V21.0834Z" fill="#B570F7"/>
</svg>
