<svg width="20" height="21" viewBox="0 0 20 21" fill="none" xmlns="http://www.w3.org/2000/svg">
<path d="M14.2939 13.0786H13.3905L13.0703 12.7699C14.2297 11.4251 14.8669 9.70834 14.8656 7.93282C14.8656 6.46275 14.4297 5.02569 13.613 3.80337C12.7963 2.58105 11.6354 1.62837 10.2772 1.06579C8.91907 0.503221 7.42457 0.356026 5.98275 0.642823C4.54092 0.92962 3.21652 1.63753 2.17702 2.67702C1.13753 3.71652 0.42962 5.04092 0.142823 6.48275C-0.143974 7.92457 0.00322054 9.41907 0.565793 10.7772C1.12837 12.1354 2.08105 13.2963 3.30337 14.113C4.52569 14.9297 5.96275 15.3656 7.43282 15.3656C9.27387 15.3656 10.9663 14.691 12.2699 13.5703L12.5786 13.8905V14.7939L18.2962 20.5L20 18.7962L14.2939 13.0786ZM7.43282 13.0786C4.58548 13.0786 2.28702 10.7802 2.28702 7.93282C2.28702 5.08548 4.58548 2.78702 7.43282 2.78702C10.2802 2.78702 12.5786 5.08548 12.5786 7.93282C12.5786 10.7802 10.2802 13.0786 7.43282 13.0786Z" fill="black"/>
</svg>
