<svg width="35" height="35" viewBox="0 0 35 35" fill="none" xmlns="http://www.w3.org/2000/svg">
<path d="M17.6832 18.686C21.2374 18.686 23.7762 16.1573 23.7762 12.6382C23.7762 9.11917 21.2022 6.5 17.648 6.5C14.0937 6.5 11.5902 9.07394 11.5902 12.593C11.5902 16.1121 14.1289 18.686 17.6832 18.686ZM17.648 8.531C20.2521 8.531 21.6245 10.0341 21.6245 12.6382C21.6245 15.2423 20.2521 16.655 17.648 16.655C15.0439 16.655 13.6212 15.1971 13.6212 12.593C13.6212 9.9889 15.0439 8.531 17.648 8.531ZM6.52774 29.1074H28.8386C29.2961 29.1074 29.6832 28.7203 29.6832 28.2629C29.6832 23.8288 26.0585 20.2042 21.6245 20.2042H13.7418C9.3078 20.2042 5.68317 23.8288 5.68317 28.2629C5.68317 28.7203 6.07026 29.1074 6.52774 29.1074ZM15 22.2403H20.2049C23.4424 22.2403 26.5777 23.868 27 27H8.5C8.92229 23.868 11.7625 22.2403 15 22.2403Z" fill="#B570F7"/>
</svg>
