<svg width="35" height="35" viewBox="0 0 35 35" fill="none" xmlns="http://www.w3.org/2000/svg">
<path d="M17.4653 18.8861C20.9653 18.8861 23.7723 16.0445 23.7723 12.5792C23.7723 9.11385 20.9653 6.23761 17.4653 6.23761C13.9653 6.23761 11.1584 9.07919 11.1584 12.5445C11.1584 16.0099 13.9653 18.8861 17.4653 18.8861ZM17.4653 7.90098C20.0297 7.90098 22.1089 9.98018 22.1089 12.5445C22.1089 15.1089 20.0297 17.1881 17.4653 17.1881C14.901 17.1881 12.8218 15.1435 12.8218 12.5792C12.8218 10.0148 14.901 7.90098 17.4653 7.90098ZM6.51485 28.7624H28.4851C28.9356 28.7624 29.3168 28.3812 29.3168 27.9307C29.3168 23.5643 25.7475 19.995 21.3812 19.995H13.6188C9.25247 19.995 5.68317 23.5643 5.68317 27.9307C5.68317 28.3812 6.06435 28.7624 6.51485 28.7624ZM13.6188 21.6584H21.3812C24.5693 21.6584 27.1683 24.0148 27.5842 27.099H7.41584C7.83168 24.0148 10.4307 21.6584 13.6188 21.6584Z" fill="#B570F7"/>
</svg>
